<svg xmlns="http://www.w3.org/2000/svg" viewBox="0 0 24 24" width="64" height="64" class="presence-svg" data-candidate="AB" data-material="soft" role="img" aria-label="Agent presence, rest, soft depth" fill="none" stroke="currentColor" stroke-linecap="round" stroke-linejoin="round"><title>Agent presence, rest, soft depth</title><g class="pr-depth" transform="translate(0.5 0.75)" style="stroke:var(--presence-depth,currentColor);stroke-opacity:var(--presence-depth-opacity,.25)"><path class="pr-eyes" d="M4.6 9H9.4M4.6 15H9.4" stroke-width="2"/><path class="pr-mouth" d="M14.6 6.6C15.3 6.6 16 6.6 16.6 6.6C17.6 6.6 18.4 7.5 18.4 12C18.4 16.5 17.6 17.4 16.6 17.4C16 17.4 15.3 17.4 14.6 17.4" stroke-width="2"/></g><g class="pr-ink"><path class="pr-eyes" d="M4.6 9H9.4M4.6 15H9.4" stroke-width="1.7"/><path class="pr-mouth" d="M14.6 6.6C15.3 6.6 16 6.6 16.6 6.6C17.6 6.6 18.4 7.5 18.4 12C18.4 16.5 17.6 17.4 16.6 17.4C16 17.4 15.3 17.4 14.6 17.4" stroke-width="1.7"/></g><g class="pr-sheen" transform="translate(-0.2 -0.24)" style="stroke:var(--presence-sheen,transparent);stroke-opacity:var(--presence-sheen-opacity,.28)"><path class="pr-eyes" d="M4.6 9H9.4M4.6 15H9.4" stroke-width="0.3"/><path class="pr-mouth" d="M14.6 6.6C15.3 6.6 16 6.6 16.6 6.6C17.6 6.6 18.4 7.5 18.4 12C18.4 16.5 17.6 17.4 16.6 17.4C16 17.4 15.3 17.4 14.6 17.4" stroke-width="0.3"/></g></svg>
