<svg xmlns="http://www.w3.org/2000/svg" viewBox="0 0 1000 1166" width="1000" height="1166" role="img" aria-label="Direction B — Ruled-grid grammar specimen">
<style>
  svg { --cw-ink:#283849; --cw-record:#6f8191; --cw-amend:#865a4f; --cw-background:#f9fafb; }
  @media (prefers-color-scheme: dark) {
    svg { --cw-ink:#e0e8f1; --cw-record:#b4c0ce; --cw-amend:#d7b1a2; --cw-background:#161b23; }
  }
</style>
<rect x="0" y="0" width="1000" height="1166" fill="var(--cw-background,#f9fafb)"/>
<text x="32" y="28" font-size="16" font-weight="600" fill="var(--cw-ink,#283849)" font-family="ui-sans-serif,system-ui,sans-serif">Direction B — Ruled-grid grammar</text>
<text x="32" y="46" font-size="11" fill="var(--cw-record,#6f8191)" font-family="ui-sans-serif,system-ui,sans-serif">构字：细单线 + 三道 ruled 参考线（cap / mid / baseline，呼应 schema lines / ruled grid）+ 两端 margin tick（呼应 scope 概念 boundary path）。</text><text x="32" y="62" font-size="11" fill="var(--cw-record,#6f8191)" font-family="ui-sans-serif,system-ui,sans-serif">revision：虚线底纹，弱于 A，强调"页边批注"而非独立记号。</text>
<text x="32" y="100" font-size="11" fill="var(--cw-record,#6f8191)" font-family="ui-sans-serif,system-ui,sans-serif">construction alphabet (letters needed for the five words + REV 07 + NDA)</text><path d="M20.0 108.0 L934.0 108.0" fill="none" stroke="var(--cw-record,#6f8191)" stroke-width="1" opacity=".35"/><path d="M20.0 138.0 L934.0 138.0" fill="none" stroke="var(--cw-record,#6f8191)" stroke-width="1" opacity=".35"/><path d="M20.0 168.0 L934.0 168.0" fill="none" stroke="var(--cw-record,#6f8191)" stroke-width="1" opacity=".35"/><path d="M20.0 105.0 L20.0 171.0" fill="none" stroke="var(--cw-ink,#283849)" stroke-width="1.2"/><path d="M934.0 105.0 L934.0 171.0" fill="none" stroke="var(--cw-ink,#283849)" stroke-width="1.2"/><g><path d="M32.0 168.0 L52.0 108.0 L72.0 168.0" fill="none" stroke="var(--cw-ink,#283849)" stroke-width="5.5" stroke-linecap="round" stroke-linejoin="round"/><path d="M40.0 144.0 L64.0 144.0" fill="none" stroke="var(--cw-ink,#283849)" stroke-width="5.5" stroke-linecap="round" stroke-linejoin="round"/></g><text x="52.0" y="184" text-anchor="middle" font-size="9" fill="var(--cw-record,#6f8191)" font-family="ui-sans-serif,system-ui,sans-serif">A</text><g><path d="M122.0 120.0 L110.0 108.0 L94.0 108.0 L82.0 120.0 L82.0 156.0 L94.0 168.0 L110.0 168.0" fill="none" stroke="var(--cw-ink,#283849)" stroke-width="5.5" stroke-linecap="round" stroke-linejoin="round"/></g><text x="102.0" y="184" text-anchor="middle" font-size="9" fill="var(--cw-record,#6f8191)" font-family="ui-sans-serif,system-ui,sans-serif">C</text><g><path d="M132.0 168.0 L132.0 108.0 L157.0 108.0 L172.0 123.0 L172.0 153.0 L157.0 168.0 L132.0 168.0" fill="none" stroke="var(--cw-ink,#283849)" stroke-width="5.5" stroke-linecap="round" stroke-linejoin="round"/></g><text x="152.0" y="184" text-anchor="middle" font-size="9" fill="var(--cw-record,#6f8191)" font-family="ui-sans-serif,system-ui,sans-serif">D</text><g><path d="M217.0 108.0 L182.0 108.0 L182.0 168.0 L217.0 168.0" fill="none" stroke="var(--cw-ink,#283849)" stroke-width="5.5" stroke-linecap="round" stroke-linejoin="round"/><path d="M182.0 138.0 L210.0 138.0" fill="none" stroke="var(--cw-ink,#283849)" stroke-width="5.5" stroke-linecap="round" stroke-linejoin="round"/></g><text x="202.0" y="184" text-anchor="middle" font-size="9" fill="var(--cw-record,#6f8191)" font-family="ui-sans-serif,system-ui,sans-serif">E</text><g><path d="M240.0 108.0 L264.0 108.0" fill="none" stroke="var(--cw-ink,#283849)" stroke-width="5.5" stroke-linecap="round" stroke-linejoin="round"/><path d="M252.0 108.0 L252.0 168.0" fill="none" stroke="var(--cw-ink,#283849)" stroke-width="5.5" stroke-linecap="round" stroke-linejoin="round"/><path d="M240.0 168.0 L264.0 168.0" fill="none" stroke="var(--cw-ink,#283849)" stroke-width="5.5" stroke-linecap="round" stroke-linejoin="round"/></g><text x="252.0" y="184" text-anchor="middle" font-size="9" fill="var(--cw-record,#6f8191)" font-family="ui-sans-serif,system-ui,sans-serif">I</text><g><path d="M282.0 108.0 L282.0 168.0" fill="none" stroke="var(--cw-ink,#283849)" stroke-width="5.5" stroke-linecap="round" stroke-linejoin="round"/><path d="M322.0 108.0 L282.0 138.0 L322.0 168.0" fill="none" stroke="var(--cw-ink,#283849)" stroke-width="5.5" stroke-linecap="round" stroke-linejoin="round"/></g><text x="302.0" y="184" text-anchor="middle" font-size="9" fill="var(--cw-record,#6f8191)" font-family="ui-sans-serif,system-ui,sans-serif">K</text><g><path d="M332.0 168.0 L332.0 108.0 L352.0 143.0 L372.0 108.0 L372.0 168.0" fill="none" stroke="var(--cw-ink,#283849)" stroke-width="5.5" stroke-linecap="round" stroke-linejoin="round"/></g><text x="352.0" y="184" text-anchor="middle" font-size="9" fill="var(--cw-record,#6f8191)" font-family="ui-sans-serif,system-ui,sans-serif">M</text><g><path d="M382.0 168.0 L382.0 108.0 L422.0 168.0 L422.0 108.0" fill="none" stroke="var(--cw-ink,#283849)" stroke-width="5.5" stroke-linecap="round" stroke-linejoin="round"/></g><text x="402.0" y="184" text-anchor="middle" font-size="9" fill="var(--cw-record,#6f8191)" font-family="ui-sans-serif,system-ui,sans-serif">N</text><g><path d="M444.0 108.0 L460.0 108.0 L472.0 120.0 L472.0 156.0 L460.0 168.0 L444.0 168.0 L432.0 156.0 L432.0 120.0 L444.0 108.0" fill="none" stroke="var(--cw-ink,#283849)" stroke-width="5.5" stroke-linecap="round" stroke-linejoin="round"/></g><text x="452.0" y="184" text-anchor="middle" font-size="9" fill="var(--cw-record,#6f8191)" font-family="ui-sans-serif,system-ui,sans-serif">O</text><g><path d="M482.0 168.0 L482.0 108.0 L512.0 108.0 L522.0 118.0 L522.0 128.0 L512.0 138.0 L482.0 138.0" fill="none" stroke="var(--cw-ink,#283849)" stroke-width="5.5" stroke-linecap="round" stroke-linejoin="round"/></g><text x="502.0" y="184" text-anchor="middle" font-size="9" fill="var(--cw-record,#6f8191)" font-family="ui-sans-serif,system-ui,sans-serif">P</text><g><path d="M532.0 168.0 L532.0 108.0 L562.0 108.0 L572.0 118.0 L572.0 128.0 L562.0 138.0 L532.0 138.0" fill="none" stroke="var(--cw-ink,#283849)" stroke-width="5.5" stroke-linecap="round" stroke-linejoin="round"/><path d="M532.0 138.0 L572.0 168.0" fill="none" stroke="var(--cw-ink,#283849)" stroke-width="5.5" stroke-linecap="round" stroke-linejoin="round"/></g><text x="552.0" y="184" text-anchor="middle" font-size="9" fill="var(--cw-record,#6f8191)" font-family="ui-sans-serif,system-ui,sans-serif">R</text><g><path d="M582.0 108.0 L622.0 108.0" fill="none" stroke="var(--cw-ink,#283849)" stroke-width="5.5" stroke-linecap="round" stroke-linejoin="round"/><path d="M602.0 108.0 L602.0 168.0" fill="none" stroke="var(--cw-ink,#283849)" stroke-width="5.5" stroke-linecap="round" stroke-linejoin="round"/></g><text x="602.0" y="184" text-anchor="middle" font-size="9" fill="var(--cw-record,#6f8191)" font-family="ui-sans-serif,system-ui,sans-serif">T</text><g><path d="M632.0 108.0 L632.0 148.0 L640.0 160.0 L652.0 168.0 L664.0 160.0 L672.0 148.0 L672.0 108.0" fill="none" stroke="var(--cw-ink,#283849)" stroke-width="5.5" stroke-linecap="round" stroke-linejoin="round"/></g><text x="652.0" y="184" text-anchor="middle" font-size="9" fill="var(--cw-record,#6f8191)" font-family="ui-sans-serif,system-ui,sans-serif">U</text><g><path d="M682.0 108.0 L702.0 168.0 L722.0 108.0" fill="none" stroke="var(--cw-ink,#283849)" stroke-width="5.5" stroke-linecap="round" stroke-linejoin="round"/></g><text x="702.0" y="184" text-anchor="middle" font-size="9" fill="var(--cw-record,#6f8191)" font-family="ui-sans-serif,system-ui,sans-serif">V</text><g><path d="M732.0 108.0 L742.0 168.0 L752.0 128.0 L762.0 168.0 L772.0 108.0" fill="none" stroke="var(--cw-ink,#283849)" stroke-width="5.5" stroke-linecap="round" stroke-linejoin="round"/></g><text x="752.0" y="184" text-anchor="middle" font-size="9" fill="var(--cw-record,#6f8191)" font-family="ui-sans-serif,system-ui,sans-serif">W</text><g><path d="M782.0 108.0 L822.0 168.0" fill="none" stroke="var(--cw-ink,#283849)" stroke-width="5.5" stroke-linecap="round" stroke-linejoin="round"/><path d="M822.0 108.0 L782.0 168.0" fill="none" stroke="var(--cw-ink,#283849)" stroke-width="5.5" stroke-linecap="round" stroke-linejoin="round"/></g><text x="802.0" y="184" text-anchor="middle" font-size="9" fill="var(--cw-record,#6f8191)" font-family="ui-sans-serif,system-ui,sans-serif">X</text><g><path d="M844.0 108.0 L860.0 108.0 L872.0 120.0 L872.0 156.0 L860.0 168.0 L844.0 168.0 L832.0 156.0 L832.0 120.0 L844.0 108.0" fill="none" stroke="var(--cw-ink,#283849)" stroke-width="5.5" stroke-linecap="round" stroke-linejoin="round"/><path d="M840.0 158.0 L864.0 118.0" fill="none" stroke="var(--cw-ink,#283849)" stroke-width="5.5" stroke-linecap="round" stroke-linejoin="round"/></g><text x="852.0" y="184" text-anchor="middle" font-size="9" fill="var(--cw-record,#6f8191)" font-family="ui-sans-serif,system-ui,sans-serif">0</text><g><path d="M882.0 108.0 L922.0 108.0 L894.0 168.0" fill="none" stroke="var(--cw-ink,#283849)" stroke-width="5.5" stroke-linecap="round" stroke-linejoin="round"/></g><text x="902.0" y="184" text-anchor="middle" font-size="9" fill="var(--cw-record,#6f8191)" font-family="ui-sans-serif,system-ui,sans-serif">7</text><text x="32" y="236" font-size="11" fill="var(--cw-record,#6f8191)" font-family="ui-sans-serif,system-ui,sans-serif">COURTWORK</text><path d="M20.0 244.0 L484.0 244.0" fill="none" stroke="var(--cw-record,#6f8191)" stroke-width="1" opacity=".35"/><path d="M20.0 274.0 L484.0 274.0" fill="none" stroke="var(--cw-record,#6f8191)" stroke-width="1" opacity=".35"/><path d="M20.0 304.0 L484.0 304.0" fill="none" stroke="var(--cw-record,#6f8191)" stroke-width="1" opacity=".35"/><path d="M20.0 241.0 L20.0 307.0" fill="none" stroke="var(--cw-ink,#283849)" stroke-width="1.2"/><path d="M484.0 241.0 L484.0 307.0" fill="none" stroke="var(--cw-ink,#283849)" stroke-width="1.2"/><g><path d="M72.0 256.0 L60.0 244.0 L44.0 244.0 L32.0 256.0 L32.0 292.0 L44.0 304.0 L60.0 304.0" fill="none" stroke="var(--cw-ink,#283849)" stroke-width="5.5" stroke-linecap="round" stroke-linejoin="round"/></g><g><path d="M94.0 244.0 L110.0 244.0 L122.0 256.0 L122.0 292.0 L110.0 304.0 L94.0 304.0 L82.0 292.0 L82.0 256.0 L94.0 244.0" fill="none" stroke="var(--cw-ink,#283849)" stroke-width="5.5" stroke-linecap="round" stroke-linejoin="round"/></g><g><path d="M132.0 244.0 L132.0 284.0 L140.0 296.0 L152.0 304.0 L164.0 296.0 L172.0 284.0 L172.0 244.0" fill="none" stroke="var(--cw-ink,#283849)" stroke-width="5.5" stroke-linecap="round" stroke-linejoin="round"/></g><g><path d="M182.0 304.0 L182.0 244.0 L212.0 244.0 L222.0 254.0 L222.0 264.0 L212.0 274.0 L182.0 274.0" fill="none" stroke="var(--cw-ink,#283849)" stroke-width="5.5" stroke-linecap="round" stroke-linejoin="round"/><path d="M182.0 274.0 L222.0 304.0" fill="none" stroke="var(--cw-ink,#283849)" stroke-width="5.5" stroke-linecap="round" stroke-linejoin="round"/></g><g><path d="M232.0 244.0 L272.0 244.0" fill="none" stroke="var(--cw-ink,#283849)" stroke-width="5.5" stroke-linecap="round" stroke-linejoin="round"/><path d="M252.0 244.0 L252.0 304.0" fill="none" stroke="var(--cw-ink,#283849)" stroke-width="5.5" stroke-linecap="round" stroke-linejoin="round"/></g><g><path d="M282.0 244.0 L292.0 304.0 L302.0 264.0 L312.0 304.0 L322.0 244.0" fill="none" stroke="var(--cw-ink,#283849)" stroke-width="5.5" stroke-linecap="round" stroke-linejoin="round"/></g><g><path d="M344.0 244.0 L360.0 244.0 L372.0 256.0 L372.0 292.0 L360.0 304.0 L344.0 304.0 L332.0 292.0 L332.0 256.0 L344.0 244.0" fill="none" stroke="var(--cw-ink,#283849)" stroke-width="5.5" stroke-linecap="round" stroke-linejoin="round"/></g><g><path d="M382.0 304.0 L382.0 244.0 L412.0 244.0 L422.0 254.0 L422.0 264.0 L412.0 274.0 L382.0 274.0" fill="none" stroke="var(--cw-ink,#283849)" stroke-width="5.5" stroke-linecap="round" stroke-linejoin="round"/><path d="M382.0 274.0 L422.0 304.0" fill="none" stroke="var(--cw-ink,#283849)" stroke-width="5.5" stroke-linecap="round" stroke-linejoin="round"/></g><g><path d="M432.0 244.0 L432.0 304.0" fill="none" stroke="var(--cw-ink,#283849)" stroke-width="5.5" stroke-linecap="round" stroke-linejoin="round"/><path d="M472.0 244.0 L432.0 274.0 L472.0 304.0" fill="none" stroke="var(--cw-ink,#283849)" stroke-width="5.5" stroke-linecap="round" stroke-linejoin="round"/></g><path d="M432.0 253.0 L472.0 253.0" fill="none" stroke="var(--cw-amend,#865a4f)" stroke-width="5.5" stroke-dasharray="2 2" stroke-linecap="round"/><text x="32" y="348" font-size="11" fill="var(--cw-record,#6f8191)" font-family="ui-sans-serif,system-ui,sans-serif">MATTER</text><path d="M20.0 356.0 L334.0 356.0" fill="none" stroke="var(--cw-record,#6f8191)" stroke-width="1" opacity=".35"/><path d="M20.0 386.0 L334.0 386.0" fill="none" stroke="var(--cw-record,#6f8191)" stroke-width="1" opacity=".35"/><path d="M20.0 416.0 L334.0 416.0" fill="none" stroke="var(--cw-record,#6f8191)" stroke-width="1" opacity=".35"/><path d="M20.0 353.0 L20.0 419.0" fill="none" stroke="var(--cw-ink,#283849)" stroke-width="1.2"/><path d="M334.0 353.0 L334.0 419.0" fill="none" stroke="var(--cw-ink,#283849)" stroke-width="1.2"/><g><path d="M32.0 416.0 L32.0 356.0 L52.0 391.0 L72.0 356.0 L72.0 416.0" fill="none" stroke="var(--cw-ink,#283849)" stroke-width="5.5" stroke-linecap="round" stroke-linejoin="round"/></g><g><path d="M82.0 416.0 L102.0 356.0 L122.0 416.0" fill="none" stroke="var(--cw-ink,#283849)" stroke-width="5.5" stroke-linecap="round" stroke-linejoin="round"/><path d="M90.0 392.0 L114.0 392.0" fill="none" stroke="var(--cw-ink,#283849)" stroke-width="5.5" stroke-linecap="round" stroke-linejoin="round"/></g><g><path d="M132.0 356.0 L172.0 356.0" fill="none" stroke="var(--cw-ink,#283849)" stroke-width="5.5" stroke-linecap="round" stroke-linejoin="round"/><path d="M152.0 356.0 L152.0 416.0" fill="none" stroke="var(--cw-ink,#283849)" stroke-width="5.5" stroke-linecap="round" stroke-linejoin="round"/></g><g><path d="M182.0 356.0 L222.0 356.0" fill="none" stroke="var(--cw-ink,#283849)" stroke-width="5.5" stroke-linecap="round" stroke-linejoin="round"/><path d="M202.0 356.0 L202.0 416.0" fill="none" stroke="var(--cw-ink,#283849)" stroke-width="5.5" stroke-linecap="round" stroke-linejoin="round"/></g><g><path d="M267.0 356.0 L232.0 356.0 L232.0 416.0 L267.0 416.0" fill="none" stroke="var(--cw-ink,#283849)" stroke-width="5.5" stroke-linecap="round" stroke-linejoin="round"/><path d="M232.0 386.0 L260.0 386.0" fill="none" stroke="var(--cw-ink,#283849)" stroke-width="5.5" stroke-linecap="round" stroke-linejoin="round"/></g><g><path d="M282.0 416.0 L282.0 356.0 L312.0 356.0 L322.0 366.0 L322.0 376.0 L312.0 386.0 L282.0 386.0" fill="none" stroke="var(--cw-ink,#283849)" stroke-width="5.5" stroke-linecap="round" stroke-linejoin="round"/><path d="M282.0 386.0 L322.0 416.0" fill="none" stroke="var(--cw-ink,#283849)" stroke-width="5.5" stroke-linecap="round" stroke-linejoin="round"/></g><path d="M282.0 365.0 L322.0 365.0" fill="none" stroke="var(--cw-amend,#865a4f)" stroke-width="5.5" stroke-dasharray="2 2" stroke-linecap="round"/><text x="32" y="460" font-size="11" fill="var(--cw-record,#6f8191)" font-family="ui-sans-serif,system-ui,sans-serif">REVIEW</text><path d="M20.0 468.0 L334.0 468.0" fill="none" stroke="var(--cw-record,#6f8191)" stroke-width="1" opacity=".35"/><path d="M20.0 498.0 L334.0 498.0" fill="none" stroke="var(--cw-record,#6f8191)" stroke-width="1" opacity=".35"/><path d="M20.0 528.0 L334.0 528.0" fill="none" stroke="var(--cw-record,#6f8191)" stroke-width="1" opacity=".35"/><path d="M20.0 465.0 L20.0 531.0" fill="none" stroke="var(--cw-ink,#283849)" stroke-width="1.2"/><path d="M334.0 465.0 L334.0 531.0" fill="none" stroke="var(--cw-ink,#283849)" stroke-width="1.2"/><g><path d="M32.0 528.0 L32.0 468.0 L62.0 468.0 L72.0 478.0 L72.0 488.0 L62.0 498.0 L32.0 498.0" fill="none" stroke="var(--cw-ink,#283849)" stroke-width="5.5" stroke-linecap="round" stroke-linejoin="round"/><path d="M32.0 498.0 L72.0 528.0" fill="none" stroke="var(--cw-ink,#283849)" stroke-width="5.5" stroke-linecap="round" stroke-linejoin="round"/></g><g><path d="M117.0 468.0 L82.0 468.0 L82.0 528.0 L117.0 528.0" fill="none" stroke="var(--cw-ink,#283849)" stroke-width="5.5" stroke-linecap="round" stroke-linejoin="round"/><path d="M82.0 498.0 L110.0 498.0" fill="none" stroke="var(--cw-ink,#283849)" stroke-width="5.5" stroke-linecap="round" stroke-linejoin="round"/></g><g><path d="M132.0 468.0 L152.0 528.0 L172.0 468.0" fill="none" stroke="var(--cw-ink,#283849)" stroke-width="5.5" stroke-linecap="round" stroke-linejoin="round"/></g><g><path d="M190.0 468.0 L214.0 468.0" fill="none" stroke="var(--cw-ink,#283849)" stroke-width="5.5" stroke-linecap="round" stroke-linejoin="round"/><path d="M202.0 468.0 L202.0 528.0" fill="none" stroke="var(--cw-ink,#283849)" stroke-width="5.5" stroke-linecap="round" stroke-linejoin="round"/><path d="M190.0 528.0 L214.0 528.0" fill="none" stroke="var(--cw-ink,#283849)" stroke-width="5.5" stroke-linecap="round" stroke-linejoin="round"/></g><g><path d="M267.0 468.0 L232.0 468.0 L232.0 528.0 L267.0 528.0" fill="none" stroke="var(--cw-ink,#283849)" stroke-width="5.5" stroke-linecap="round" stroke-linejoin="round"/><path d="M232.0 498.0 L260.0 498.0" fill="none" stroke="var(--cw-ink,#283849)" stroke-width="5.5" stroke-linecap="round" stroke-linejoin="round"/></g><g><path d="M282.0 468.0 L292.0 528.0 L302.0 488.0 L312.0 528.0 L322.0 468.0" fill="none" stroke="var(--cw-ink,#283849)" stroke-width="5.5" stroke-linecap="round" stroke-linejoin="round"/></g><path d="M282.0 477.0 L322.0 477.0" fill="none" stroke="var(--cw-amend,#865a4f)" stroke-width="5.5" stroke-dasharray="2 2" stroke-linecap="round"/><text x="32" y="572" font-size="11" fill="var(--cw-record,#6f8191)" font-family="ui-sans-serif,system-ui,sans-serif">TRACE</text><path d="M20.0 580.0 L284.0 580.0" fill="none" stroke="var(--cw-record,#6f8191)" stroke-width="1" opacity=".35"/><path d="M20.0 610.0 L284.0 610.0" fill="none" stroke="var(--cw-record,#6f8191)" stroke-width="1" opacity=".35"/><path d="M20.0 640.0 L284.0 640.0" fill="none" stroke="var(--cw-record,#6f8191)" stroke-width="1" opacity=".35"/><path d="M20.0 577.0 L20.0 643.0" fill="none" stroke="var(--cw-ink,#283849)" stroke-width="1.2"/><path d="M284.0 577.0 L284.0 643.0" fill="none" stroke="var(--cw-ink,#283849)" stroke-width="1.2"/><g><path d="M32.0 580.0 L72.0 580.0" fill="none" stroke="var(--cw-ink,#283849)" stroke-width="5.5" stroke-linecap="round" stroke-linejoin="round"/><path d="M52.0 580.0 L52.0 640.0" fill="none" stroke="var(--cw-ink,#283849)" stroke-width="5.5" stroke-linecap="round" stroke-linejoin="round"/></g><g><path d="M82.0 640.0 L82.0 580.0 L112.0 580.0 L122.0 590.0 L122.0 600.0 L112.0 610.0 L82.0 610.0" fill="none" stroke="var(--cw-ink,#283849)" stroke-width="5.5" stroke-linecap="round" stroke-linejoin="round"/><path d="M82.0 610.0 L122.0 640.0" fill="none" stroke="var(--cw-ink,#283849)" stroke-width="5.5" stroke-linecap="round" stroke-linejoin="round"/></g><g><path d="M132.0 640.0 L152.0 580.0 L172.0 640.0" fill="none" stroke="var(--cw-ink,#283849)" stroke-width="5.5" stroke-linecap="round" stroke-linejoin="round"/><path d="M140.0 616.0 L164.0 616.0" fill="none" stroke="var(--cw-ink,#283849)" stroke-width="5.5" stroke-linecap="round" stroke-linejoin="round"/></g><g><path d="M222.0 592.0 L210.0 580.0 L194.0 580.0 L182.0 592.0 L182.0 628.0 L194.0 640.0 L210.0 640.0" fill="none" stroke="var(--cw-ink,#283849)" stroke-width="5.5" stroke-linecap="round" stroke-linejoin="round"/></g><g><path d="M267.0 580.0 L232.0 580.0 L232.0 640.0 L267.0 640.0" fill="none" stroke="var(--cw-ink,#283849)" stroke-width="5.5" stroke-linecap="round" stroke-linejoin="round"/><path d="M232.0 610.0 L260.0 610.0" fill="none" stroke="var(--cw-ink,#283849)" stroke-width="5.5" stroke-linecap="round" stroke-linejoin="round"/></g><path d="M232.0 589.0 L272.0 589.0" fill="none" stroke="var(--cw-amend,#865a4f)" stroke-width="5.5" stroke-dasharray="2 2" stroke-linecap="round"/><text x="32" y="684" font-size="11" fill="var(--cw-record,#6f8191)" font-family="ui-sans-serif,system-ui,sans-serif">EXPERT</text><path d="M20.0 692.0 L334.0 692.0" fill="none" stroke="var(--cw-record,#6f8191)" stroke-width="1" opacity=".35"/><path d="M20.0 722.0 L334.0 722.0" fill="none" stroke="var(--cw-record,#6f8191)" stroke-width="1" opacity=".35"/><path d="M20.0 752.0 L334.0 752.0" fill="none" stroke="var(--cw-record,#6f8191)" stroke-width="1" opacity=".35"/><path d="M20.0 689.0 L20.0 755.0" fill="none" stroke="var(--cw-ink,#283849)" stroke-width="1.2"/><path d="M334.0 689.0 L334.0 755.0" fill="none" stroke="var(--cw-ink,#283849)" stroke-width="1.2"/><g><path d="M67.0 692.0 L32.0 692.0 L32.0 752.0 L67.0 752.0" fill="none" stroke="var(--cw-ink,#283849)" stroke-width="5.5" stroke-linecap="round" stroke-linejoin="round"/><path d="M32.0 722.0 L60.0 722.0" fill="none" stroke="var(--cw-ink,#283849)" stroke-width="5.5" stroke-linecap="round" stroke-linejoin="round"/></g><g><path d="M82.0 692.0 L122.0 752.0" fill="none" stroke="var(--cw-ink,#283849)" stroke-width="5.5" stroke-linecap="round" stroke-linejoin="round"/><path d="M122.0 692.0 L82.0 752.0" fill="none" stroke="var(--cw-ink,#283849)" stroke-width="5.5" stroke-linecap="round" stroke-linejoin="round"/></g><g><path d="M132.0 752.0 L132.0 692.0 L162.0 692.0 L172.0 702.0 L172.0 712.0 L162.0 722.0 L132.0 722.0" fill="none" stroke="var(--cw-ink,#283849)" stroke-width="5.5" stroke-linecap="round" stroke-linejoin="round"/></g><g><path d="M217.0 692.0 L182.0 692.0 L182.0 752.0 L217.0 752.0" fill="none" stroke="var(--cw-ink,#283849)" stroke-width="5.5" stroke-linecap="round" stroke-linejoin="round"/><path d="M182.0 722.0 L210.0 722.0" fill="none" stroke="var(--cw-ink,#283849)" stroke-width="5.5" stroke-linecap="round" stroke-linejoin="round"/></g><g><path d="M232.0 752.0 L232.0 692.0 L262.0 692.0 L272.0 702.0 L272.0 712.0 L262.0 722.0 L232.0 722.0" fill="none" stroke="var(--cw-ink,#283849)" stroke-width="5.5" stroke-linecap="round" stroke-linejoin="round"/><path d="M232.0 722.0 L272.0 752.0" fill="none" stroke="var(--cw-ink,#283849)" stroke-width="5.5" stroke-linecap="round" stroke-linejoin="round"/></g><g><path d="M282.0 692.0 L322.0 692.0" fill="none" stroke="var(--cw-ink,#283849)" stroke-width="5.5" stroke-linecap="round" stroke-linejoin="round"/><path d="M302.0 692.0 L302.0 752.0" fill="none" stroke="var(--cw-ink,#283849)" stroke-width="5.5" stroke-linecap="round" stroke-linejoin="round"/></g><path d="M282.0 701.0 L322.0 701.0" fill="none" stroke="var(--cw-amend,#865a4f)" stroke-width="5.5" stroke-dasharray="2 2" stroke-linecap="round"/><text x="32" y="796" font-size="11" fill="var(--cw-record,#6f8191)" font-family="ui-sans-serif,system-ui,sans-serif">REV 07 (revision number)</text><path d="M20.0 804.0 L299.0 804.0" fill="none" stroke="var(--cw-record,#6f8191)" stroke-width="1" opacity=".35"/><path d="M20.0 834.0 L299.0 834.0" fill="none" stroke="var(--cw-record,#6f8191)" stroke-width="1" opacity=".35"/><path d="M20.0 864.0 L299.0 864.0" fill="none" stroke="var(--cw-record,#6f8191)" stroke-width="1" opacity=".35"/><path d="M20.0 801.0 L20.0 867.0" fill="none" stroke="var(--cw-ink,#283849)" stroke-width="1.2"/><path d="M299.0 801.0 L299.0 867.0" fill="none" stroke="var(--cw-ink,#283849)" stroke-width="1.2"/><g><path d="M32.0 864.0 L32.0 804.0 L62.0 804.0 L72.0 814.0 L72.0 824.0 L62.0 834.0 L32.0 834.0" fill="none" stroke="var(--cw-ink,#283849)" stroke-width="5.5" stroke-linecap="round" stroke-linejoin="round"/><path d="M32.0 834.0 L72.0 864.0" fill="none" stroke="var(--cw-ink,#283849)" stroke-width="5.5" stroke-linecap="round" stroke-linejoin="round"/></g><g><path d="M117.0 804.0 L82.0 804.0 L82.0 864.0 L117.0 864.0" fill="none" stroke="var(--cw-ink,#283849)" stroke-width="5.5" stroke-linecap="round" stroke-linejoin="round"/><path d="M82.0 834.0 L110.0 834.0" fill="none" stroke="var(--cw-ink,#283849)" stroke-width="5.5" stroke-linecap="round" stroke-linejoin="round"/></g><g><path d="M132.0 804.0 L152.0 864.0 L172.0 804.0" fill="none" stroke="var(--cw-ink,#283849)" stroke-width="5.5" stroke-linecap="round" stroke-linejoin="round"/></g><g><path d="M209.0 804.0 L225.0 804.0 L237.0 816.0 L237.0 852.0 L225.0 864.0 L209.0 864.0 L197.0 852.0 L197.0 816.0 L209.0 804.0" fill="none" stroke="var(--cw-ink,#283849)" stroke-width="5.5" stroke-linecap="round" stroke-linejoin="round"/><path d="M205.0 854.0 L229.0 814.0" fill="none" stroke="var(--cw-ink,#283849)" stroke-width="5.5" stroke-linecap="round" stroke-linejoin="round"/></g><g><path d="M247.0 804.0 L287.0 804.0 L259.0 864.0" fill="none" stroke="var(--cw-ink,#283849)" stroke-width="5.5" stroke-linecap="round" stroke-linejoin="round"/></g><path d="M247.0 813.0 L287.0 813.0" fill="none" stroke="var(--cw-amend,#865a4f)" stroke-width="5.5" stroke-dasharray="2 2" stroke-linecap="round"/><text x="32" y="908" font-size="11" fill="var(--cw-record,#6f8191)" font-family="ui-sans-serif,system-ui,sans-serif">NDA (matter initials)</text><path d="M20.0 916.0 L184.0 916.0" fill="none" stroke="var(--cw-record,#6f8191)" stroke-width="1" opacity=".35"/><path d="M20.0 946.0 L184.0 946.0" fill="none" stroke="var(--cw-record,#6f8191)" stroke-width="1" opacity=".35"/><path d="M20.0 976.0 L184.0 976.0" fill="none" stroke="var(--cw-record,#6f8191)" stroke-width="1" opacity=".35"/><path d="M20.0 913.0 L20.0 979.0" fill="none" stroke="var(--cw-ink,#283849)" stroke-width="1.2"/><path d="M184.0 913.0 L184.0 979.0" fill="none" stroke="var(--cw-ink,#283849)" stroke-width="1.2"/><g><path d="M32.0 976.0 L32.0 916.0 L72.0 976.0 L72.0 916.0" fill="none" stroke="var(--cw-ink,#283849)" stroke-width="5.5" stroke-linecap="round" stroke-linejoin="round"/></g><g><path d="M82.0 976.0 L82.0 916.0 L107.0 916.0 L122.0 931.0 L122.0 961.0 L107.0 976.0 L82.0 976.0" fill="none" stroke="var(--cw-ink,#283849)" stroke-width="5.5" stroke-linecap="round" stroke-linejoin="round"/></g><g><path d="M132.0 976.0 L152.0 916.0 L172.0 976.0" fill="none" stroke="var(--cw-ink,#283849)" stroke-width="5.5" stroke-linecap="round" stroke-linejoin="round"/><path d="M140.0 952.0 L164.0 952.0" fill="none" stroke="var(--cw-ink,#283849)" stroke-width="5.5" stroke-linecap="round" stroke-linejoin="round"/></g><path d="M132.0 925.0 L172.0 925.0" fill="none" stroke="var(--cw-amend,#865a4f)" stroke-width="5.5" stroke-dasharray="2 2" stroke-linecap="round"/><text x="32" y="1028" font-size="11" fill="var(--cw-record,#6f8191)" font-family="ui-sans-serif,system-ui,sans-serif">state glyph — CW monogram projecting Run vocabulary only (loading incomplete → resolved)</text><g opacity="1.0"><path d="M72.0 1048.0 L60.0 1036.0 L44.0 1036.0 L32.0 1048.0 L32.0 1084.0 L44.0 1096.0 L60.0 1096.0" fill="none" stroke="var(--cw-ink,#283849)" stroke-width="5.5" stroke-linecap="round" stroke-linejoin="round"/></g><g opacity="0.28"><path d="M82.0 1036.0 L92.0 1096.0 L102.0 1056.0 L112.0 1096.0 L122.0 1036.0" fill="none" stroke="var(--cw-ink,#283849)" stroke-width="5.5" stroke-linecap="round" stroke-linejoin="round"/></g><text x="32.0" y="1114" font-size="11" fill="var(--cw-record,#6f8191)" font-family="ui-sans-serif,system-ui,sans-serif">Working</text><g opacity="1.0"><path d="M262.0 1048.0 L250.0 1036.0 L234.0 1036.0 L222.0 1048.0 L222.0 1084.0 L234.0 1096.0 L250.0 1096.0" fill="none" stroke="var(--cw-ink,#283849)" stroke-width="5.5" stroke-linecap="round" stroke-linejoin="round"/></g><g opacity="1.0"><path d="M272.0 1036.0 L282.0 1096.0 L292.0 1056.0 L302.0 1096.0 L312.0 1036.0" fill="none" stroke="var(--cw-ink,#283849)" stroke-width="5.5" stroke-linecap="round" stroke-linejoin="round"/></g><text x="222.0" y="1114" font-size="11" fill="var(--cw-record,#6f8191)" font-family="ui-sans-serif,system-ui,sans-serif">Working</text><g opacity="1.0"><path d="M452.0 1048.0 L440.0 1036.0 L424.0 1036.0 L412.0 1048.0 L412.0 1084.0 L424.0 1096.0 L440.0 1096.0" fill="none" stroke="var(--cw-ink,#283849)" stroke-width="5.5" stroke-linecap="round" stroke-linejoin="round"/></g><g opacity="1.0"><path d="M462.0 1036.0 L472.0 1096.0 L482.0 1056.0 L492.0 1096.0 L502.0 1036.0" fill="none" stroke="var(--cw-ink,#283849)" stroke-width="5.5" stroke-linecap="round" stroke-linejoin="round"/></g><path d="M508.0 1086.0 l4.0 4.0 l9.0 -11.0" fill="none" stroke="var(--cw-ink,#283849)" stroke-width="2.2" stroke-linecap="round" stroke-linejoin="round"/><text x="412.0" y="1114" font-size="11" fill="var(--cw-record,#6f8191)" font-family="ui-sans-serif,system-ui,sans-serif">Completed</text>
</svg>